<svg width="32" height="32" viewBox="0 0 32 32" fill="none" xmlns="http://www.w3.org/2000/svg">
<path d="M4 10.6667V25.3333C4 28.268 6.392 29.3333 8 29.3333H28V26.6667H8.016C7.4 26.6507 6.66667 26.408 6.66667 25.3333C6.66667 24.2587 7.4 24.016 8.016 24H28V5.33333C28 3.86266 26.804 2.66666 25.3333 2.66666H8C6.392 2.66666 4 3.732 4 6.66666V10.6667ZM8 5.33333H25.3333V21.3333H6.66667V6.66666C6.66667 5.592 7.4 5.34933 8 5.33333Z" fill="#D90062"/>
<path d="M15.996 18.6667L20.4627 14.2813C20.7381 14.0165 20.9572 13.6987 21.1068 13.3472C21.2565 12.9956 21.3336 12.6174 21.3336 12.2353C21.3336 11.8532 21.2565 11.4751 21.1068 11.1235C20.9572 10.7719 20.7381 10.4542 20.4627 10.1893C19.9075 9.64134 19.1588 9.33408 18.3787 9.33408C17.5986 9.33408 16.8499 9.64134 16.2947 10.1893L15.996 10.48L15.6973 10.188C15.1424 9.64009 14.3939 9.33286 13.614 9.33286C12.8341 9.33286 12.0857 9.64009 11.5307 10.188C11.2553 10.4529 11.0362 10.7706 10.8865 11.1222C10.7369 11.4737 10.6597 11.8519 10.6597 12.234C10.6597 12.6161 10.7369 12.9943 10.8865 13.3458C11.0362 13.6974 11.2553 14.0151 11.5307 14.28L15.996 18.6667Z" fill="#D90062"/>
</svg>
