<svg width="32" height="32" viewBox="0 0 32 32" fill="none" xmlns="http://www.w3.org/2000/svg">
<path d="M26.6663 8C26.6663 5.10934 21.7823 2.66667 15.9997 2.66667C10.217 2.66667 5.33301 5.10934 5.33301 8V10.6667C5.33301 13.5573 10.217 16 15.9997 16C21.7823 16 26.6663 13.5573 26.6663 10.6667V8ZM15.9997 25.3333C10.217 25.3333 5.33301 22.8907 5.33301 20V24C5.33301 26.8907 10.217 29.3333 15.9997 29.3333C21.7823 29.3333 26.6663 26.8907 26.6663 24V20C26.6663 22.8907 21.7823 25.3333 15.9997 25.3333Z" fill="#D90062"/>
<path d="M26.6663 13.3333C26.6663 16.224 21.7823 18.6667 15.9997 18.6667C10.217 18.6667 5.33301 16.224 5.33301 13.3333V17.3333C5.33301 20.224 10.217 22.6667 15.9997 22.6667C21.7823 22.6667 26.6663 20.224 26.6663 17.3333V13.3333Z" fill="#D90062"/>
</svg>
